<svg width="113" height="30" viewBox="0 0 113 30" fill="none" xmlns="http://www.w3.org/2000/svg">
<path d="M0 29.6008V0.39924H11.5993C13.8292 0.39924 15.7289 0.822244 17.2985 1.66825C18.868 2.50475 20.0643 3.6692 20.8874 5.1616C21.72 6.64449 22.1363 8.35551 22.1363 10.2947C22.1363 12.2338 21.7152 13.9449 20.873 15.4278C20.0308 16.9106 18.8106 18.0656 17.2123 18.8926C15.6237 19.7196 13.7 20.1331 11.4414 20.1331H4.04828V15.1854H10.4365C11.6328 15.1854 12.6186 14.981 13.3938 14.5722C14.1785 14.154 14.7623 13.5789 15.1451 12.847C15.5375 12.1055 15.7337 11.2548 15.7337 10.2947C15.7337 9.32509 15.5375 8.47909 15.1451 7.75665C14.7623 7.02471 14.1785 6.45912 13.3938 6.05989C12.609 5.65114 11.6137 5.44677 10.4078 5.44677H6.21597V29.6008H0Z" fill="url(#paint0_linear_18_2)"/>
<path d="M52.1144 10.6226H45.8266C45.7118 9.81464 45.4773 9.09696 45.1232 8.46958C44.7691 7.8327 44.3145 7.29087 43.7594 6.84411C43.2043 6.39734 42.5631 6.05513 41.8358 5.81749C41.118 5.57985 40.338 5.46103 39.4958 5.46103C37.9741 5.46103 36.6486 5.8365 35.5193 6.58745C34.39 7.3289 33.5143 8.41255 32.8922 9.8384C32.2702 11.2548 31.9591 12.9753 31.9591 15C31.9591 17.0817 32.2702 18.8308 32.8922 20.2471C33.5239 21.6635 34.4044 22.7329 35.5337 23.4553C36.663 24.1778 37.9693 24.539 39.4527 24.539C40.2854 24.539 41.0558 24.4297 41.764 24.211C42.4818 23.9924 43.1182 23.674 43.6733 23.2557C44.2284 22.8279 44.6877 22.3099 45.0514 21.7015C45.4247 21.0932 45.6831 20.3992 45.8266 19.6198L52.1144 19.6483C51.9517 20.9886 51.5449 22.2814 50.8941 23.5266C50.2529 24.7624 49.3868 25.8698 48.2958 26.8489C47.2143 27.8184 45.9223 28.5884 44.4198 29.1587C42.9268 29.7196 41.2376 30 39.3522 30C36.73 30 34.3852 29.4106 32.318 28.2319C30.2604 27.0532 28.6334 25.347 27.4371 23.1131C26.2504 20.8793 25.657 18.1749 25.657 15C25.657 11.8156 26.26 9.10646 27.4658 6.87262C28.6717 4.63878 30.3082 2.93726 32.3754 1.76806C34.4426 0.589354 36.7682 0 39.3522 0C41.0558 0 42.6349 0.237643 44.0896 0.712928C45.5539 1.18821 46.8507 1.88213 47.98 2.79468C49.1093 3.69772 50.028 4.80513 50.7362 6.11692C51.454 7.42871 51.9134 8.93061 52.1144 10.6226Z" fill="url(#paint1_linear_18_2)"/>
<path d="M83.589 15C83.589 18.1844 82.9813 20.8935 81.7658 23.1274C80.56 25.3612 78.9139 27.0675 76.8275 28.2462C74.7507 29.4154 72.4156 30 69.822 30C67.2093 30 64.8645 29.4106 62.7877 28.2319C60.711 27.0532 59.0696 25.347 57.8638 23.1131C56.6579 20.8793 56.055 18.1749 56.055 15C56.055 11.8156 56.6579 9.10646 57.8638 6.87262C59.0696 4.63878 60.711 2.93726 62.7877 1.76806C64.8645 0.589354 67.2093 0 69.822 0C72.4156 0 74.7507 0.589354 76.8275 1.76806C78.9139 2.93726 80.56 4.63878 81.7658 6.87262C82.9813 9.10646 83.589 11.8156 83.589 15ZM77.2869 15C77.2869 12.9373 76.9758 11.1977 76.3538 9.78137C75.7413 8.36502 74.8751 7.29088 73.7554 6.55894C72.6357 5.827 71.3245 5.46103 69.822 5.46103C68.3194 5.46103 67.0083 5.827 65.8885 6.55894C64.7688 7.29088 63.8979 8.36502 63.2758 9.78137C62.6633 11.1977 62.3571 12.9373 62.3571 15C62.3571 17.0627 62.6633 18.8023 63.2758 20.2186C63.8979 21.635 64.7688 22.7091 65.8885 23.4411C67.0083 24.173 68.3194 24.539 69.822 24.539C71.3245 24.539 72.6357 24.173 73.7554 23.4411C74.8751 22.7091 75.7413 21.635 76.3538 20.2186C76.9758 18.8023 77.2869 17.0627 77.2869 15Z" fill="url(#paint2_linear_18_2)"/>
<path d="M98.6157 29.6008H88.1935V0.39924H98.7018C101.659 0.39924 104.205 0.983841 106.339 2.15304C108.473 3.31274 110.115 4.98099 111.263 7.15779C112.421 9.3346 113 11.9392 113 14.9715C113 18.0133 112.421 20.6274 111.263 22.8137C110.115 25 108.464 26.6778 106.31 27.847C104.167 29.0162 101.602 29.6008 98.6157 29.6008ZM94.4095 24.3108H98.3573C100.195 24.3108 101.74 23.9876 102.994 23.3413C104.257 22.6854 105.205 21.673 105.837 20.3042C106.478 18.9259 106.798 17.1483 106.798 14.9715C106.798 12.8137 106.478 11.0504 105.837 9.68156C105.205 8.31274 104.262 7.30513 103.009 6.65875C101.755 6.01236 100.209 5.68916 98.3716 5.68916H94.4095V24.3108Z" fill="url(#paint3_linear_18_2)"/>
<defs>
<linearGradient id="paint0_linear_18_2" x1="-2.5553" y1="-9.34677" x2="113.708" y2="30.0778" gradientUnits="userSpaceOnUse">
<stop stop-color="#05CE19"/>
<stop offset="1" stop-color="#00D1FF"/>
</linearGradient>
<linearGradient id="paint1_linear_18_2" x1="-2.5553" y1="-9.34677" x2="113.708" y2="30.0778" gradientUnits="userSpaceOnUse">
<stop stop-color="#05CE19"/>
<stop offset="1" stop-color="#00D1FF"/>
</linearGradient>
<linearGradient id="paint2_linear_18_2" x1="-2.5553" y1="-9.34677" x2="113.708" y2="30.0778" gradientUnits="userSpaceOnUse">
<stop stop-color="#05CE19"/>
<stop offset="1" stop-color="#00D1FF"/>
</linearGradient>
<linearGradient id="paint3_linear_18_2" x1="-2.5553" y1="-9.34677" x2="113.708" y2="30.0778" gradientUnits="userSpaceOnUse">
<stop stop-color="#05CE19"/>
<stop offset="1" stop-color="#00D1FF"/>
</linearGradient>
</defs>
</svg>
