<svg width="599" height="1024" viewBox="0 0 599 1024" fill="none" xmlns="http://www.w3.org/2000/svg">
<rect width="599" height="1024" fill="white"/>
<circle cx="487" cy="912" r="112" fill="url(#paint0_linear_21_36)"/>
<circle cx="178.5" cy="845.5" r="151.5" fill="url(#paint1_linear_21_36)"/>
<circle cx="90" cy="114" r="89" fill="url(#paint2_linear_21_36)"/>
<circle cx="536" cy="140" r="63" fill="url(#paint3_linear_21_36)"/>
<path d="M447.333 728.872L430.293 723.927C428.505 723.424 427.5 721.553 428.002 719.765L466.132 588.42C466.635 586.632 468.507 585.626 470.294 586.129L487.334 591.074C489.122 591.576 490.127 593.448 489.625 595.236L451.495 726.581C450.964 728.369 449.12 729.402 447.333 728.872ZM415.488 697.53L427.639 684.568C428.924 683.2 428.84 681.021 427.416 679.764L402.108 657.5L427.416 635.237C428.84 633.98 428.952 631.801 427.639 630.432L415.488 617.471C414.231 616.13 412.108 616.047 410.739 617.331L370.486 655.042C369.062 656.355 369.062 658.618 370.486 659.931L410.739 697.669C412.108 698.954 414.231 698.899 415.488 697.53V697.53ZM506.888 697.697L547.141 659.959C548.565 658.646 548.565 656.383 547.141 655.07L506.888 617.304C505.547 616.047 503.424 616.102 502.139 617.443L489.988 630.405C488.703 631.773 488.787 633.952 490.211 635.209L515.519 657.5L490.211 679.764C488.787 681.021 488.675 683.2 489.988 684.568L502.139 697.53C503.396 698.899 505.519 698.954 506.888 697.697V697.697Z" fill="url(#paint4_linear_21_36)"/>
<path d="M441.915 734.29L424.875 729.345C423.087 728.842 422.082 726.971 422.584 725.183L460.714 593.838C461.217 592.05 463.089 591.044 464.876 591.547L481.916 596.491C483.704 596.994 484.709 598.866 484.207 600.654L446.077 731.999C445.546 733.787 443.702 734.82 441.915 734.29ZM410.07 702.948L422.221 689.986C423.506 688.618 423.422 686.439 421.998 685.182L396.69 662.918L421.998 640.655C423.422 639.398 423.534 637.219 422.221 635.85L410.07 622.889C408.813 621.548 406.69 621.464 405.321 622.749L365.068 660.46C363.644 661.773 363.644 664.036 365.068 665.349L405.321 703.087C406.69 704.372 408.813 704.316 410.07 702.948V702.948ZM501.47 703.115L541.723 665.377C543.147 664.064 543.147 661.801 541.723 660.488L501.47 622.721C500.129 621.464 498.006 621.52 496.721 622.861L484.57 635.822C483.285 637.191 483.369 639.37 484.793 640.627L510.101 662.918L484.793 685.182C483.369 686.439 483.257 688.618 484.57 689.986L496.721 702.948C497.978 704.316 500.101 704.372 501.47 703.115V703.115Z" fill="url(#paint5_linear_21_36)"/>
<path d="M224.851 653.433C216.136 656.584 206.606 662.925 198.703 670.827L147.135 722.395C145.058 722.106 143.062 722.144 141.229 722.525L178.486 685.268C146.517 706.314 125.668 688.986 103.392 711.262L103.391 711.262L126.497 734.368L123.609 737.257L100.503 714.151C95.7178 718.936 97.011 727.988 103.391 734.368L114.944 745.921C110.757 750.109 110.979 753.509 113.5 756.03L120.721 763.251C123.245 765.775 126.645 765.991 130.83 761.807L133.718 764.695C129.531 768.882 129.752 772.282 132.274 774.804L139.495 782.024C142.019 784.548 145.419 784.765 149.603 780.58L161.156 792.133C167.537 798.514 176.589 799.807 181.374 795.021L158.268 771.915L161.156 769.027L184.262 792.133L184.263 792.133C206.538 769.857 189.21 749.007 210.256 717.039L172.999 754.296C173.381 752.463 173.419 750.467 173.129 748.39L224.698 696.821C232.6 688.919 238.94 679.389 242.092 670.674C244.938 662.805 244.914 656.384 242.027 653.497C239.14 650.611 232.719 650.586 224.851 653.433V653.433ZM221.809 688.156C221.426 688.539 220.907 688.755 220.365 688.755C219.824 688.755 219.304 688.539 218.921 688.156L207.368 676.603C206.985 676.22 206.77 675.701 206.77 675.159C206.77 674.618 206.985 674.098 207.368 673.715C213.128 667.955 227.575 682.39 221.809 688.156Z" fill="url(#paint6_linear_21_36)"/>
<path d="M220.789 649.37C212.074 652.522 202.544 658.862 194.641 666.765L143.073 718.333C140.996 718.044 139 718.082 137.167 718.463L174.424 681.206C142.455 702.252 121.606 684.924 99.33 707.2L99.3295 707.2L122.435 730.306L119.547 733.194L96.4412 710.089C91.6558 714.874 92.949 723.926 99.3295 730.306L110.882 741.859C106.695 746.047 106.917 749.447 109.438 751.968L116.659 759.189C119.183 761.713 122.583 761.929 126.768 757.745L129.656 760.633C125.469 764.82 125.69 768.22 128.212 770.742L135.432 777.962C137.957 780.486 141.357 780.703 145.541 776.518L157.094 788.071C163.475 794.452 172.527 795.745 177.312 790.959L154.206 767.853L157.094 764.965L180.2 788.071L180.201 788.071C202.476 765.795 185.148 744.945 206.194 712.977L168.937 750.234C169.319 748.401 169.357 746.405 169.067 744.328L220.636 692.759C228.538 684.857 234.878 675.327 238.03 666.612C240.876 658.743 240.852 652.322 237.965 649.435C235.078 646.549 228.657 646.524 220.789 649.37V649.37ZM217.747 684.094C217.364 684.477 216.845 684.693 216.303 684.693C215.762 684.693 215.242 684.477 214.859 684.094L203.306 672.541C202.923 672.158 202.708 671.639 202.708 671.097C202.708 670.556 202.923 670.036 203.306 669.653C209.066 663.893 223.513 678.328 217.747 684.094Z" fill="url(#paint7_linear_21_36)"/>
<path d="M133.735 550.126V353.112H211.463C226.406 353.112 239.136 355.965 249.654 361.673C260.172 367.317 268.188 375.173 273.704 385.242C279.283 395.247 282.073 406.79 282.073 419.873C282.073 432.956 279.251 444.5 273.608 454.505C267.964 464.51 259.787 472.302 249.077 477.881C238.431 483.461 225.54 486.251 210.405 486.251H160.863V452.87H203.671C211.688 452.87 218.293 451.491 223.488 448.733C228.747 445.911 232.659 442.031 235.224 437.093C237.854 432.091 239.168 426.351 239.168 419.873C239.168 413.332 237.854 407.624 235.224 402.75C232.659 397.812 228.747 393.996 223.488 391.302C218.229 388.545 211.559 387.166 203.479 387.166H175.389V550.126H133.735Z" fill="url(#paint8_linear_21_36)"/>
<path d="M482.96 422.086H440.825C440.055 416.635 438.484 411.793 436.111 407.56C433.738 403.263 430.692 399.608 426.972 396.593C423.253 393.579 418.956 391.27 414.082 389.667C409.272 388.064 404.045 387.262 398.401 387.262C388.204 387.262 379.322 389.795 371.754 394.862C364.187 399.864 358.318 407.175 354.15 416.795C349.981 426.351 347.897 437.959 347.897 451.619C347.897 465.664 349.981 477.464 354.15 487.02C358.383 496.576 364.283 503.791 371.85 508.665C379.418 513.539 388.172 515.976 398.113 515.976C403.692 515.976 408.855 515.238 413.601 513.763C418.411 512.288 422.675 510.14 426.395 507.318C430.115 504.432 433.193 500.937 435.63 496.832C438.131 492.728 439.863 488.046 440.825 482.787L482.96 482.98C481.87 492.022 479.144 500.744 474.783 509.146C470.486 517.483 464.682 524.954 457.371 531.56C450.124 538.102 441.466 543.296 431.397 547.144C421.393 550.928 410.073 552.82 397.439 552.82C379.867 552.82 364.155 548.844 350.302 540.891C336.513 532.939 325.611 521.427 317.594 506.356C309.642 491.285 305.666 473.039 305.666 451.619C305.666 430.135 309.706 411.857 317.787 396.786C325.867 381.715 336.834 370.235 350.687 362.347C364.539 354.394 380.124 350.418 397.439 350.418C408.855 350.418 419.437 352.021 429.185 355.228C438.997 358.435 447.687 363.116 455.255 369.273C462.822 375.365 468.979 382.837 473.725 391.687C478.535 400.537 481.613 410.67 482.96 422.086Z" fill="url(#paint9_linear_21_36)"/>
<path d="M310.509 693.201C310.509 714.685 306.437 732.963 298.292 748.034C290.211 763.105 279.18 774.617 265.2 782.57C251.283 790.458 235.634 794.402 218.255 794.402C200.746 794.402 185.034 790.426 171.117 782.473C157.2 774.521 146.202 763.009 138.121 747.938C130.04 732.867 126 714.621 126 693.201C126 671.717 130.04 653.439 138.121 638.368C146.202 623.297 157.2 611.817 171.117 603.929C185.034 595.976 200.746 592 218.255 592C235.634 592 251.283 595.976 265.2 603.929C279.18 611.817 290.211 623.297 298.292 638.368C306.437 653.439 310.509 671.717 310.509 693.201ZM268.278 693.201C268.278 679.284 266.194 667.548 262.025 657.992C257.92 648.437 252.116 641.19 244.613 636.251C237.109 631.313 228.323 628.844 218.255 628.844C208.186 628.844 199.4 631.313 191.896 636.251C184.393 641.19 178.557 648.437 174.388 657.992C170.283 667.548 168.231 679.284 168.231 693.201C168.231 707.118 170.283 718.854 174.388 728.41C178.557 737.965 184.393 745.212 191.896 750.151C199.4 755.089 208.186 757.558 218.255 757.558C228.323 757.558 237.109 755.089 244.613 750.151C252.116 745.212 257.92 737.965 262.025 728.41C266.194 718.854 268.278 707.118 268.278 693.201Z" fill="url(#paint10_linear_21_36)"/>
<path d="M411.205 791.708H341.365V594.694H411.782C431.599 594.694 448.658 598.638 462.96 606.526C477.261 614.35 488.26 625.605 495.956 640.292C503.716 654.978 507.596 672.55 507.596 693.009C507.596 713.531 503.716 731.167 495.956 745.918C488.26 760.668 477.197 771.988 462.768 779.876C448.402 787.764 431.214 791.708 411.205 791.708ZM383.019 756.019H409.473C421.787 756.019 432.144 753.838 440.546 749.477C449.011 745.052 455.36 738.222 459.593 728.987C463.89 719.688 466.038 707.695 466.038 693.009C466.038 678.451 463.89 666.554 459.593 657.319C455.36 648.084 449.043 641.286 440.642 636.925C432.241 632.564 421.883 630.383 409.57 630.383H383.019V756.019Z" fill="url(#paint11_linear_21_36)"/>
<path d="M129.596 544.708V347.694H207.325C222.268 347.694 234.998 350.547 245.516 356.255C256.033 361.899 264.05 369.755 269.565 379.824C275.145 389.829 277.935 401.372 277.935 414.455C277.935 427.538 275.113 439.082 269.469 449.087C263.826 459.092 255.649 466.884 244.939 472.463C234.293 478.043 221.402 480.833 206.267 480.833H156.724V447.452H199.533C207.549 447.452 214.155 446.073 219.35 443.315C224.609 440.493 228.521 436.613 231.086 431.675C233.715 426.673 235.03 420.933 235.03 414.455C235.03 407.914 233.715 402.206 231.086 397.332C228.521 392.394 224.609 388.578 219.35 385.884C214.091 383.127 207.421 381.748 199.34 381.748H171.25V544.708H129.596Z" fill="url(#paint12_linear_21_36)"/>
<path d="M478.822 416.668H436.687C435.917 411.217 434.346 406.375 431.973 402.142C429.6 397.845 426.554 394.19 422.834 391.175C419.114 388.161 414.817 385.852 409.943 384.249C405.133 382.646 399.907 381.844 394.263 381.844C384.066 381.844 375.184 384.377 367.616 389.444C360.048 394.446 354.18 401.757 350.012 411.377C345.843 420.933 343.759 432.541 343.759 446.201C343.759 460.246 345.843 472.046 350.012 481.602C354.244 491.158 360.144 498.373 367.712 503.247C375.28 508.121 384.034 510.558 393.974 510.558C399.554 510.558 404.717 509.82 409.462 508.345C414.272 506.87 418.537 504.722 422.257 501.9C425.976 499.014 429.055 495.519 431.492 491.414C433.993 487.31 435.725 482.628 436.687 477.369L478.822 477.562C477.731 486.604 475.006 495.326 470.645 503.728C466.348 512.065 460.544 519.536 453.233 526.142C445.986 532.684 437.328 537.878 427.259 541.726C417.254 545.51 405.935 547.402 393.301 547.402C375.729 547.402 360.016 543.426 346.164 535.473C332.375 527.521 321.473 516.009 313.456 500.938C305.504 485.867 301.527 467.621 301.527 446.201C301.527 424.717 305.568 406.439 313.648 391.368C321.729 376.297 332.696 364.817 346.548 356.929C360.401 348.976 375.985 345 393.301 345C404.717 345 415.298 346.603 425.047 349.81C434.859 353.017 443.549 357.698 451.116 363.855C458.684 369.948 464.841 377.419 469.587 386.269C474.396 395.12 477.475 405.252 478.822 416.668Z" fill="url(#paint13_linear_21_36)"/>
<path d="M302.509 689.201C302.509 710.685 298.437 728.963 290.292 744.034C282.211 759.105 271.18 770.617 257.2 778.57C243.283 786.458 227.634 790.402 210.255 790.402C192.746 790.402 177.034 786.426 163.117 778.473C149.2 770.521 138.202 759.009 130.121 743.938C122.04 728.867 118 710.621 118 689.201C118 667.717 122.04 649.439 130.121 634.368C138.202 619.297 149.2 607.817 163.117 599.929C177.034 591.976 192.746 588 210.255 588C227.634 588 243.283 591.976 257.2 599.929C271.18 607.817 282.211 619.297 290.292 634.368C298.437 649.439 302.509 667.717 302.509 689.201ZM260.278 689.201C260.278 675.284 258.194 663.548 254.025 653.992C249.92 644.437 244.116 637.19 236.613 632.251C229.109 627.313 220.323 624.844 210.255 624.844C200.186 624.844 191.4 627.313 183.896 632.251C176.393 637.19 170.557 644.437 166.388 653.992C162.283 663.548 160.231 675.284 160.231 689.201C160.231 703.118 162.283 714.854 166.388 724.41C170.557 733.965 176.393 741.212 183.896 746.151C191.4 751.089 200.186 753.558 210.255 753.558C220.323 753.558 229.109 751.089 236.613 746.151C244.116 741.212 249.92 733.965 254.025 724.41C258.194 714.854 260.278 703.118 260.278 689.201Z" fill="url(#paint14_linear_21_36)"/>
<path d="M403.205 787.708H333.365V590.694H403.782C423.599 590.694 440.658 594.638 454.96 602.526C469.262 610.35 480.26 621.605 487.956 636.292C495.716 650.978 499.596 668.55 499.596 689.009C499.596 709.531 495.716 727.167 487.956 741.918C480.26 756.668 469.197 767.988 454.768 775.876C440.402 783.764 423.214 787.708 403.205 787.708ZM375.019 752.019H401.474C413.787 752.019 424.144 749.838 432.546 745.477C441.011 741.052 447.36 734.222 451.593 724.987C455.89 715.688 458.038 703.695 458.038 689.009C458.038 674.451 455.89 662.554 451.593 653.319C447.36 644.084 441.043 637.286 432.642 632.925C424.24 628.564 413.883 626.383 401.57 626.383H375.019V752.019Z" fill="url(#paint15_linear_21_36)"/>
<path d="M304.812 255.798L191.049 220.846C184.85 218.942 178.162 218.942 171.967 220.846L58.2004 255.798C48.5999 258.747 48.5999 271.443 58.2004 274.391L78.0335 280.484C73.6819 285.864 71.0065 292.426 70.7414 299.612C66.8139 301.863 64.0488 305.925 64.0488 310.775C64.0488 315.171 66.3653 318.87 69.7014 321.236L59.2893 368.088C58.3839 372.162 61.4835 376.029 65.6556 376.029H88.5394C92.7157 376.029 95.8152 372.162 94.9098 368.088L84.4977 321.236C87.8339 318.87 90.1504 315.171 90.1504 310.775C90.1504 306.056 87.5117 302.108 83.7636 299.816C84.0736 293.69 87.2058 288.274 92.2018 284.84L171.963 309.347C175.658 310.481 182.746 311.896 191.045 309.347L304.812 274.395C314.416 271.443 314.416 258.751 304.812 255.798V255.798ZM194.879 321.823C183.243 325.396 173.329 323.422 168.129 321.823L108.984 303.654L103.201 349.927C103.201 364.344 138.259 376.029 181.506 376.029C224.753 376.029 259.811 364.344 259.811 349.927L254.028 303.65L194.879 321.823Z" fill="url(#paint16_linear_21_36)"/>
<path d="M310.23 250.38L196.467 215.428C190.268 213.524 183.58 213.524 177.385 215.428L63.6183 250.38C54.0178 253.329 54.0178 266.025 63.6183 268.973L83.4515 275.067C79.0999 280.446 76.4244 287.008 76.1593 294.194C72.2319 296.445 69.4667 300.507 69.4667 305.357C69.4667 309.753 71.7833 313.452 75.1194 315.818L64.7073 362.67C63.8019 366.744 66.9014 370.611 71.0736 370.611H93.9574C98.1336 370.611 101.233 366.744 100.328 362.67L89.9157 315.818C93.2518 313.452 95.5683 309.753 95.5683 305.357C95.5683 300.638 92.9296 296.69 89.1816 294.398C89.4916 288.272 92.6238 282.856 97.6198 279.422L177.381 303.929C181.076 305.063 188.164 306.478 196.463 303.929L310.23 268.978C319.834 266.025 319.834 253.333 310.23 250.38V250.38ZM200.297 316.405C188.661 319.978 178.747 318.004 173.547 316.405L114.402 298.236L108.619 344.509C108.619 358.926 143.677 370.611 186.924 370.611C230.171 370.611 265.229 358.926 265.229 344.509L259.446 298.232L200.297 316.405Z" fill="url(#paint17_linear_21_36)"/>
<path d="M312.164 321.99C323.599 317.601 329.315 304.762 324.925 293.327C320.536 281.892 307.697 276.175 296.262 280.565C284.827 284.954 279.111 297.793 283.5 309.228C287.89 320.663 300.729 326.38 312.164 321.99ZM377.639 370.675L365.63 369.443L356.574 358.363C342.843 341.553 319.984 334.881 299.902 342.54C284.351 348.46 277.453 356.158 263.816 368.868C255.936 376.2 251.032 386.252 250.022 397.037L249.384 404.015C248.635 412.125 254.534 419.366 262.618 420.175C270.658 421 277.796 415.091 278.588 406.964L279.226 399.986C279.577 396.386 281.169 393.052 283.796 390.608L293.571 381.508L297.067 410.219C298.268 420.055 304.345 428.664 313.236 433.123L349.916 451.422C354.332 453.639 358.106 456.893 360.934 460.907L380.972 489.506C385.66 496.172 394.908 497.821 401.574 493.133C408.241 488.445 409.89 479.197 405.202 472.531L380.88 437.804C378.052 433.79 374.261 430.492 369.862 428.319L341.996 414.409L338.038 381.916L343.145 388.124C348.099 394.194 355.221 398.045 362.952 398.84L374.961 400.072C383.001 400.897 390.14 394.988 390.932 386.862C391.654 378.811 385.722 371.484 377.639 370.675V370.675ZM302.172 469.304C302.132 473.329 301.27 477.275 299.605 480.934L286.328 510.835C283.005 518.299 286.368 527.059 293.832 530.382C301.296 533.705 310.013 530.359 313.336 522.895L329.129 487.424C330.751 483.782 331.613 479.836 331.695 475.795L331.922 458.973C298.071 442.113 308.299 447.346 302.573 443.653L302.172 469.304Z" fill="url(#paint18_linear_21_36)"/>
<path d="M309.996 326.859C321.431 322.47 327.147 309.631 322.757 298.196C318.368 286.761 305.529 281.045 294.094 285.434C282.659 289.824 276.943 302.663 281.332 314.098C285.722 325.533 298.561 331.249 309.996 326.859ZM375.471 375.545L363.462 374.312L354.406 363.233C340.676 346.422 317.816 339.75 297.734 347.409C282.183 353.329 275.285 361.027 261.648 373.738C253.768 381.07 248.864 391.122 247.854 401.906L247.216 408.884C246.467 416.994 252.366 424.236 260.45 425.044C268.49 425.869 275.628 419.96 276.42 411.834L277.058 404.855C277.409 401.255 279.001 397.921 281.628 395.477L291.403 386.378L294.899 415.088C296.1 424.925 302.177 433.534 311.068 437.993L347.748 456.292C352.164 458.508 355.938 461.763 358.766 465.776L378.804 494.375C383.492 501.042 392.74 502.69 399.406 498.002C406.073 493.314 407.722 484.067 403.034 477.4L378.712 442.673C375.884 438.659 372.093 435.361 367.694 433.188L339.828 419.279L335.87 386.785L340.977 392.994C345.931 399.063 353.053 402.914 360.785 403.709L372.793 404.941C380.833 405.766 387.972 399.857 388.764 391.731C389.486 383.681 383.554 376.353 375.471 375.545V375.545ZM300.004 474.174C299.964 478.199 299.102 482.144 297.437 485.803L284.16 515.704C280.837 523.168 284.2 531.928 291.664 535.251C299.128 538.575 307.845 535.229 311.168 527.764L326.961 492.294C328.583 488.651 329.445 484.706 329.527 480.664L329.754 463.843C295.903 446.983 306.131 452.216 300.405 448.522L300.004 474.174Z" fill="url(#paint19_linear_21_36)"/>
<defs>
<linearGradient id="paint0_linear_21_36" x1="487" y1="800" x2="487" y2="1024" gradientUnits="userSpaceOnUse">
<stop stop-color="#00FFE0"/>
<stop offset="1" stop-color="#00F035"/>
</linearGradient>
<linearGradient id="paint1_linear_21_36" x1="178.5" y1="694" x2="178.5" y2="997" gradientUnits="userSpaceOnUse">
<stop stop-color="#00FFE0"/>
<stop offset="1" stop-color="#00F035"/>
</linearGradient>
<linearGradient id="paint2_linear_21_36" x1="90" y1="25" x2="90" y2="203" gradientUnits="userSpaceOnUse">
<stop stop-color="#00FFA3"/>
<stop offset="1" stop-color="#00CB6A"/>
</linearGradient>
<linearGradient id="paint3_linear_21_36" x1="536" y1="77" x2="536" y2="203" gradientUnits="userSpaceOnUse">
<stop stop-color="#00FFE0"/>
<stop offset="1" stop-color="#00F035"/>
</linearGradient>
<linearGradient id="paint4_linear_21_36" x1="458.813" y1="586" x2="458.813" y2="729.011" gradientUnits="userSpaceOnUse">
<stop stop-color="#00D609"/>
<stop offset="1" stop-color="#002CC8"/>
</linearGradient>
<linearGradient id="paint5_linear_21_36" x1="453.396" y1="591.418" x2="453.396" y2="734.429" gradientUnits="userSpaceOnUse">
<stop stop-color="#00D609"/>
<stop offset="0.0001" stop-color="#00FF0B"/>
<stop offset="1" stop-color="#0038FF"/>
</linearGradient>
<linearGradient id="paint6_linear_21_36" x1="125" y1="762.326" x2="248.305" y2="648.755" gradientUnits="userSpaceOnUse">
<stop stop-color="#00C7A3"/>
<stop offset="1" stop-color="#000D84"/>
</linearGradient>
<linearGradient id="paint7_linear_21_36" x1="120.938" y1="758.263" x2="244.243" y2="644.693" gradientUnits="userSpaceOnUse">
<stop stop-color="#00FFD1"/>
<stop offset="1" stop-color="#001AFF"/>
</linearGradient>
<linearGradient id="paint8_linear_21_36" x1="116.611" y1="287.358" x2="896.791" y2="550.127" gradientUnits="userSpaceOnUse">
<stop stop-color="#009F10"/>
<stop offset="1" stop-color="#01AACF"/>
</linearGradient>
<linearGradient id="paint9_linear_21_36" x1="116.611" y1="287.358" x2="896.791" y2="550.127" gradientUnits="userSpaceOnUse">
<stop stop-color="#009F10"/>
<stop offset="1" stop-color="#01AACF"/>
</linearGradient>
<linearGradient id="paint10_linear_21_36" x1="116.611" y1="287.358" x2="896.791" y2="550.127" gradientUnits="userSpaceOnUse">
<stop stop-color="#009F10"/>
<stop offset="1" stop-color="#01AACF"/>
</linearGradient>
<linearGradient id="paint11_linear_21_36" x1="116.611" y1="287.358" x2="896.791" y2="550.127" gradientUnits="userSpaceOnUse">
<stop stop-color="#009F10"/>
<stop offset="1" stop-color="#01AACF"/>
</linearGradient>
<linearGradient id="paint12_linear_21_36" x1="112.473" y1="281.94" x2="892.652" y2="544.709" gradientUnits="userSpaceOnUse">
<stop stop-color="#05CE19"/>
<stop offset="1" stop-color="#00D1FF"/>
</linearGradient>
<linearGradient id="paint13_linear_21_36" x1="112.473" y1="281.94" x2="892.652" y2="544.709" gradientUnits="userSpaceOnUse">
<stop stop-color="#05CE19"/>
<stop offset="1" stop-color="#00D1FF"/>
</linearGradient>
<linearGradient id="paint14_linear_21_36" x1="112.473" y1="281.94" x2="892.652" y2="544.709" gradientUnits="userSpaceOnUse">
<stop stop-color="#05CE19"/>
<stop offset="1" stop-color="#00D1FF"/>
</linearGradient>
<linearGradient id="paint15_linear_21_36" x1="112.473" y1="281.94" x2="892.652" y2="544.709" gradientUnits="userSpaceOnUse">
<stop stop-color="#05CE19"/>
<stop offset="1" stop-color="#00D1FF"/>
</linearGradient>
<linearGradient id="paint16_linear_21_36" x1="65.8993" y1="369.765" x2="302.933" y2="369.765" gradientUnits="userSpaceOnUse">
<stop stop-color="#10C900"/>
<stop offset="1" stop-color="#03B0D6"/>
</linearGradient>
<linearGradient id="paint17_linear_21_36" x1="71.3172" y1="364.347" x2="308.351" y2="364.347" gradientUnits="userSpaceOnUse">
<stop stop-color="#14FF00"/>
<stop offset="1" stop-color="#00D1FF"/>
</linearGradient>
<linearGradient id="paint18_linear_21_36" x1="275.572" y1="288.507" x2="360.393" y2="509.473" gradientUnits="userSpaceOnUse">
<stop stop-color="#0008BC"/>
<stop offset="1" stop-color="#028D74"/>
</linearGradient>
<linearGradient id="paint19_linear_21_36" x1="273.404" y1="293.377" x2="358.225" y2="514.343" gradientUnits="userSpaceOnUse">
<stop stop-color="#000AFF"/>
<stop offset="1" stop-color="#00EAC0"/>
</linearGradient>
</defs>
</svg>
