<svg width="1324" height="825" viewBox="0 0 1324 825" fill="none" xmlns="http://www.w3.org/2000/svg">
<path d="M1009.41 403.319L992.368 398.375C990.58 397.872 989.574 396.001 990.077 394.213L1028.21 262.868C1028.71 261.08 1030.58 260.074 1032.37 260.577L1049.41 265.521C1051.2 266.024 1052.2 267.896 1051.7 269.683L1013.57 401.029C1013.04 402.817 1011.2 403.85 1009.41 403.319ZM977.563 371.978L989.714 359.016C990.999 357.647 990.915 355.469 989.49 354.212L964.182 331.948L989.49 309.685C990.915 308.428 991.027 306.249 989.714 304.88L977.563 291.919C976.306 290.578 974.183 290.494 972.814 291.779L932.561 329.49C931.137 330.803 931.137 333.066 932.561 334.378L972.814 372.117C974.183 373.402 976.306 373.346 977.563 371.978ZM1068.96 372.145L1109.22 334.406C1110.64 333.093 1110.64 330.831 1109.22 329.518L1068.96 291.751C1067.62 290.494 1065.5 290.55 1064.21 291.891L1052.06 304.852C1050.78 306.221 1050.86 308.4 1052.29 309.657L1077.59 331.948L1052.29 354.212C1050.86 355.469 1050.75 357.647 1052.06 359.016L1064.21 371.978C1065.47 373.346 1067.59 373.402 1068.96 372.145Z" fill="url(#paint0_linear_15_3)"/>
<path d="M1003.99 408.737L986.95 403.793C985.162 403.29 984.156 401.419 984.659 399.631L1022.79 268.286C1023.29 266.498 1025.16 265.492 1026.95 265.995L1043.99 270.939C1045.78 271.442 1046.78 273.314 1046.28 275.101L1008.15 406.447C1007.62 408.234 1005.78 409.268 1003.99 408.737ZM972.145 377.395L984.296 364.434C985.581 363.065 985.497 360.886 984.073 359.629L958.764 337.366L984.073 315.103C985.497 313.846 985.609 311.667 984.296 310.298L972.145 297.337C970.888 295.996 968.765 295.912 967.396 297.197L927.143 334.908C925.719 336.221 925.719 338.483 927.143 339.796L967.396 377.535C968.765 378.82 970.888 378.764 972.145 377.395ZM1063.54 377.563L1103.8 339.824C1105.22 338.511 1105.22 336.249 1103.8 334.936L1063.54 297.169C1062.2 295.912 1060.08 295.968 1058.8 297.309L1046.64 310.27C1045.36 311.639 1045.44 313.818 1046.87 315.075L1072.18 337.366L1046.87 359.629C1045.44 360.886 1045.33 363.065 1046.64 364.434L1058.8 377.395C1060.05 378.764 1062.18 378.82 1063.54 377.563Z" fill="url(#paint1_linear_15_3)"/>
<path d="M792.612 331.97C783.897 335.122 774.367 341.462 766.465 349.364L714.897 400.933C712.819 400.643 710.824 400.681 708.99 401.063L746.247 363.806C714.279 384.852 693.429 367.524 671.153 389.799L671.153 389.8L694.259 412.906L691.371 415.794L668.265 392.688C663.479 397.473 664.772 406.525 671.153 412.906L682.706 424.459C678.518 428.646 678.74 432.046 681.262 434.567L688.482 441.788C691.006 444.312 694.407 444.529 698.591 440.344L701.479 443.232C697.292 447.42 697.514 450.82 700.035 453.341L707.256 460.562C709.78 463.086 713.18 463.302 717.365 459.118L728.918 470.671C735.298 477.051 744.35 478.344 749.135 473.559L726.029 450.453L728.918 447.565L752.024 470.671L752.024 470.67C774.3 448.394 756.972 427.545 778.018 395.576L740.761 432.833C741.142 431 741.18 429.004 740.891 426.927L792.459 375.359C800.361 367.456 806.701 357.926 809.853 349.211C812.7 341.343 812.675 334.922 809.788 332.035C806.902 329.148 800.481 329.124 792.612 331.97ZM789.571 366.694C789.188 367.077 788.668 367.292 788.127 367.292C787.585 367.292 787.066 367.077 786.683 366.694L775.13 355.141C774.747 354.758 774.531 354.238 774.531 353.697C774.531 353.155 774.747 352.636 775.13 352.253C780.89 346.493 795.337 360.928 789.571 366.694Z" fill="url(#paint2_linear_15_3)"/>
<path d="M788.55 327.908C779.835 331.06 770.305 337.4 762.403 345.302L710.834 396.871C708.757 396.581 706.761 396.619 704.928 397.001L742.185 359.743C710.216 380.79 689.367 363.462 667.091 385.737L667.091 385.738L690.197 408.844L687.308 411.732L664.202 388.626C659.417 393.411 660.71 402.463 667.091 408.844L678.644 420.397C674.456 424.584 674.678 427.984 677.2 430.505L684.42 437.726C686.944 440.25 690.344 440.466 694.529 436.282L697.417 439.17C693.23 443.358 693.452 446.758 695.973 449.279L703.194 456.5C705.718 459.024 709.118 459.24 713.303 455.055L724.856 466.608C731.236 472.989 740.288 474.282 745.073 469.497L721.967 446.391L724.856 443.502L747.961 466.608L747.962 466.608C770.238 444.332 752.909 423.483 773.956 391.514L736.698 428.771C737.08 426.938 737.118 424.942 736.828 422.865L788.397 371.296C796.299 363.394 802.639 353.864 805.791 345.149C808.638 337.281 808.613 330.86 805.726 327.973C802.84 325.086 796.418 325.062 788.55 327.908ZM785.509 362.632C785.126 363.015 784.606 363.23 784.065 363.23C783.523 363.23 783.003 363.015 782.62 362.632L771.067 351.079C770.684 350.696 770.469 350.176 770.469 349.635C770.469 349.093 770.684 348.573 771.067 348.19C776.827 342.43 791.275 356.866 785.509 362.632Z" fill="url(#paint3_linear_15_3)"/>
<path d="M309.862 462.865V265.85H387.591C402.534 265.85 415.264 268.704 425.782 274.412C436.299 280.056 444.316 287.912 449.831 297.981C455.411 307.985 458.201 319.529 458.201 332.612C458.201 345.695 455.379 357.239 449.735 367.244C444.092 377.248 435.915 385.04 425.205 390.62C414.559 396.2 401.668 398.989 386.533 398.989H336.99V365.608H379.799C387.815 365.608 394.421 364.229 399.616 361.472C404.875 358.65 408.787 354.77 411.352 349.832C413.981 344.829 415.296 339.09 415.296 332.612C415.296 326.071 413.981 320.363 411.352 315.489C408.787 310.551 404.875 306.735 399.616 304.041C394.357 301.283 387.687 299.905 379.606 299.905H351.516V462.865H309.862Z" fill="url(#paint4_linear_15_3)"/>
<path d="M659.088 334.825H616.953C616.183 329.374 614.612 324.532 612.239 320.299C609.866 316.002 606.82 312.346 603.1 309.332C599.38 306.318 595.083 304.009 590.209 302.406C585.399 300.803 580.173 300.001 574.529 300.001C564.332 300.001 555.45 302.534 547.882 307.601C540.314 312.603 534.446 319.914 530.278 329.534C526.109 339.09 524.025 350.698 524.025 364.358C524.025 378.403 526.109 390.203 530.278 399.759C534.51 409.315 540.41 416.53 547.978 421.404C555.546 426.278 564.3 428.715 574.24 428.715C579.82 428.715 584.983 427.977 589.728 426.502C594.538 425.027 598.803 422.879 602.523 420.057C606.242 417.171 609.321 413.676 611.758 409.571C614.259 405.467 615.991 400.785 616.953 395.526L659.088 395.719C657.997 404.761 655.272 413.483 650.911 421.885C646.614 430.222 640.81 437.693 633.499 444.299C626.252 450.84 617.594 456.035 607.525 459.883C597.52 463.667 586.201 465.559 573.567 465.559C555.995 465.559 540.282 461.583 526.43 453.63C512.641 445.678 501.739 434.166 493.722 419.095C485.77 404.024 481.793 385.778 481.793 364.358C481.793 342.873 485.834 324.596 493.914 309.525C501.995 294.453 512.962 282.974 526.814 275.085C540.667 267.133 556.251 263.157 573.567 263.157C584.983 263.157 595.564 264.76 605.313 267.967C615.125 271.173 623.815 275.855 631.382 282.012C638.95 288.104 645.107 295.576 649.853 304.426C654.662 313.276 657.741 323.409 659.088 334.825Z" fill="url(#paint5_linear_15_3)"/>
<path d="M870.003 364.358C870.003 385.842 865.931 404.12 857.786 419.191C849.705 434.262 838.674 445.774 824.694 453.726C810.777 461.615 795.129 465.559 777.749 465.559C760.241 465.559 744.528 461.583 730.611 453.63C716.695 445.678 705.696 434.166 697.615 419.095C689.534 404.024 685.494 385.778 685.494 364.358C685.494 342.873 689.534 324.596 697.615 309.525C705.696 294.453 716.695 282.974 730.611 275.085C744.528 267.133 760.241 263.157 777.749 263.157C795.129 263.157 810.777 267.133 824.694 275.085C838.674 282.974 849.705 294.453 857.786 309.525C865.931 324.596 870.003 342.873 870.003 364.358ZM827.772 364.358C827.772 350.441 825.688 338.705 821.519 329.149C817.415 319.593 811.611 312.346 804.107 307.408C796.604 302.47 787.817 300.001 777.749 300.001C767.68 300.001 758.894 302.47 751.39 307.408C743.887 312.346 738.051 319.593 733.882 329.149C729.778 338.705 727.725 350.441 727.725 364.358C727.725 378.275 729.778 390.011 733.882 399.566C738.051 409.122 743.887 416.369 751.39 421.307C758.894 426.246 767.68 428.715 777.749 428.715C787.817 428.715 796.604 426.246 804.107 421.307C811.611 416.369 817.415 409.122 821.519 399.566C825.688 390.011 827.772 378.275 827.772 364.358Z" fill="url(#paint6_linear_15_3)"/>
<path d="M970.699 462.865H900.859V265.85H971.276C991.093 265.85 1008.15 269.794 1022.45 277.683C1036.76 285.507 1047.75 296.762 1055.45 311.448C1063.21 326.135 1067.09 343.707 1067.09 364.165C1067.09 384.688 1063.21 402.324 1055.45 417.075C1047.75 431.825 1036.69 443.145 1022.26 451.033C1007.9 458.921 990.708 462.865 970.699 462.865ZM942.513 427.176H968.968C981.281 427.176 991.638 424.995 1000.04 420.634C1008.51 416.209 1014.85 409.379 1019.09 400.144C1023.38 390.844 1025.53 378.852 1025.53 364.165C1025.53 349.607 1023.38 337.711 1019.09 328.476C1014.85 319.241 1008.54 312.443 1000.14 308.082C991.735 303.721 981.377 301.54 969.064 301.54H942.513V427.176Z" fill="url(#paint7_linear_15_3)"/>
<path d="M305.724 457.447V260.432H383.452C398.395 260.432 411.126 263.286 421.643 268.994C432.161 274.638 440.178 282.494 445.693 292.563C451.272 302.567 454.062 314.111 454.062 327.194C454.062 340.277 451.24 351.821 445.597 361.826C439.953 371.83 431.776 379.623 421.066 385.202C410.42 390.782 397.529 393.571 382.394 393.571H332.852V360.19H375.66C383.677 360.19 390.283 358.812 395.477 356.054C400.736 353.232 404.648 349.352 407.213 344.414C409.843 339.411 411.158 333.672 411.158 327.194C411.158 320.653 409.843 314.945 407.213 310.071C404.648 305.133 400.736 301.317 395.477 298.623C390.218 295.866 383.549 294.487 375.468 294.487H347.378V457.447H305.724Z" fill="url(#paint8_linear_15_3)"/>
<path d="M654.949 329.407H612.814C612.045 323.956 610.473 319.114 608.1 314.881C605.728 310.584 602.681 306.928 598.962 303.914C595.242 300.9 590.945 298.591 586.071 296.988C581.261 295.385 576.034 294.583 570.391 294.583C560.193 294.583 551.311 297.116 543.743 302.183C536.176 307.185 530.308 314.496 526.139 324.116C521.971 333.672 519.886 345.28 519.886 358.94C519.886 372.985 521.971 384.785 526.139 394.341C530.372 403.897 536.272 411.112 543.84 415.986C551.407 420.86 560.161 423.297 570.102 423.297C575.681 423.297 580.844 422.559 585.59 421.084C590.4 419.609 594.665 417.461 598.384 414.639C602.104 411.753 605.182 408.258 607.619 404.153C610.121 400.049 611.852 395.367 612.814 390.108L654.949 390.301C653.859 399.343 651.133 408.065 646.772 416.467C642.475 424.804 636.671 432.275 629.36 438.881C622.113 445.422 613.455 450.617 603.387 454.465C593.382 458.249 582.063 460.141 569.429 460.141C551.856 460.141 536.144 456.165 522.291 448.212C508.503 440.26 497.6 428.748 489.584 413.677C481.631 398.606 477.655 380.36 477.655 358.94C477.655 337.455 481.695 319.178 489.776 304.107C497.857 289.035 508.823 277.556 522.676 269.667C536.529 261.715 552.113 257.739 569.429 257.739C580.844 257.739 591.426 259.342 601.174 262.549C610.986 265.755 619.676 270.437 627.244 276.594C634.812 282.686 640.968 290.158 645.714 299.008C650.524 307.858 653.602 317.991 654.949 329.407Z" fill="url(#paint9_linear_15_3)"/>
<path d="M865.865 358.94C865.865 380.424 861.792 398.702 853.648 413.773C845.567 428.844 834.536 440.356 820.555 448.308C806.638 456.197 790.99 460.141 773.61 460.141C756.102 460.141 740.39 456.165 726.473 448.212C712.556 440.26 701.557 428.748 693.477 413.677C685.396 398.606 681.356 380.36 681.356 358.94C681.356 337.455 685.396 319.178 693.477 304.107C701.557 289.035 712.556 277.556 726.473 269.667C740.39 261.715 756.102 257.739 773.61 257.739C790.99 257.739 806.638 261.715 820.555 269.667C834.536 277.556 845.567 289.035 853.648 304.107C861.792 319.178 865.865 337.455 865.865 358.94ZM823.634 358.94C823.634 345.023 821.549 333.287 817.381 323.731C813.276 314.175 807.472 306.928 799.969 301.99C792.465 297.052 783.679 294.583 773.61 294.583C763.541 294.583 754.755 297.052 747.252 301.99C739.748 306.928 733.912 314.175 729.744 323.731C725.639 333.287 723.587 345.023 723.587 358.94C723.587 372.857 725.639 384.593 729.744 394.149C733.912 403.704 739.748 410.951 747.252 415.889C754.755 420.828 763.541 423.297 773.61 423.297C783.679 423.297 792.465 420.828 799.969 415.889C807.472 410.951 813.276 403.704 817.381 394.149C821.549 384.593 823.634 372.857 823.634 358.94Z" fill="url(#paint10_linear_15_3)"/>
<path d="M966.561 457.447H896.721V260.432H967.138C986.955 260.432 1004.01 264.376 1018.32 272.265C1032.62 280.089 1043.62 291.344 1051.31 306.031C1059.07 320.717 1062.95 338.289 1062.95 358.747C1062.95 379.27 1059.07 396.906 1051.31 411.657C1043.62 426.407 1032.55 437.727 1018.12 445.615C1003.76 453.503 986.57 457.447 966.561 457.447ZM938.375 421.758H964.829C977.143 421.758 987.5 419.577 995.901 415.216C1004.37 410.791 1010.72 403.961 1014.95 394.726C1019.25 385.427 1021.39 373.434 1021.39 358.747C1021.39 344.189 1019.25 332.293 1014.95 323.058C1010.72 313.823 1004.4 307.025 995.998 302.664C987.596 298.303 977.239 296.122 964.925 296.122H938.375V421.758Z" fill="url(#paint11_linear_15_3)"/>
<path d="M485.321 239.169C496.756 234.78 502.472 221.941 498.082 210.506C493.693 199.071 480.854 193.355 469.419 197.744C457.984 202.134 452.268 214.972 456.657 226.407C461.047 237.842 473.886 243.559 485.321 239.169ZM550.796 287.854L538.787 286.622L529.731 275.542C516 258.732 493.141 252.06 473.059 259.719C457.508 265.639 450.61 273.337 436.973 286.048C429.093 293.38 424.189 303.431 423.179 314.216L422.541 321.194C421.792 329.304 427.691 336.545 435.774 337.354C443.815 338.179 450.953 332.27 451.745 324.143L452.383 317.165C452.734 313.565 454.326 310.231 456.952 307.787L466.728 298.687L470.224 327.398C471.425 337.234 477.502 345.843 486.393 350.302L523.073 368.601C527.489 370.818 531.263 374.072 534.091 378.086L554.129 406.685C558.817 413.351 568.065 415 574.731 410.312C581.398 405.624 583.047 396.377 578.359 389.71L554.037 354.983C551.209 350.969 547.418 347.671 543.019 345.498L515.153 331.588L511.195 299.095L516.302 305.304C521.256 311.373 528.378 315.224 536.109 316.019L548.118 317.251C556.158 318.076 563.297 312.167 564.089 304.041C564.811 295.99 558.879 288.663 550.796 287.854ZM475.328 386.483C475.289 390.509 474.427 394.454 472.762 398.113L459.485 428.014C456.162 435.478 459.525 444.238 466.989 447.561C474.453 450.885 483.17 447.539 486.493 440.074L502.286 404.603C503.908 400.961 504.77 397.016 504.852 392.974L505.079 376.152C471.228 359.292 481.456 364.526 475.73 360.832L475.328 386.483Z" fill="url(#paint12_linear_15_3)"/>
<path d="M483.153 244.039C494.588 239.649 500.304 226.81 495.914 215.375C491.525 203.94 478.686 198.224 467.251 202.613C455.816 207.003 450.1 219.842 454.489 231.277C458.879 242.712 471.718 248.428 483.153 244.039ZM548.628 292.724L536.619 291.491L527.563 280.412C513.833 263.601 490.973 256.929 470.891 264.588C455.34 270.508 448.442 278.206 434.805 290.917C426.925 298.249 422.021 308.301 421.011 319.085L420.373 326.063C419.624 334.173 425.523 341.415 433.607 342.223C441.647 343.048 448.785 337.139 449.577 329.013L450.215 322.034C450.566 318.434 452.158 315.1 454.785 312.656L464.56 303.557L468.056 332.267C469.257 342.104 475.334 350.713 484.225 355.172L520.905 373.471C525.321 375.687 529.095 378.942 531.923 382.956L551.961 411.554C556.649 418.221 565.897 419.869 572.563 415.181C579.23 410.493 580.879 401.246 576.191 394.579L551.869 359.852C549.041 355.838 545.25 352.54 540.851 350.367L512.985 336.458L509.027 303.964L514.134 310.173C519.088 316.242 526.21 320.093 533.942 320.888L545.95 322.12C553.99 322.945 561.129 317.036 561.921 308.91C562.643 300.86 556.711 293.532 548.628 292.724ZM473.161 391.353C473.121 395.378 472.259 399.323 470.594 402.982L457.317 432.883C453.994 440.347 457.357 449.107 464.821 452.431C472.285 455.754 481.002 452.408 484.325 444.944L500.118 409.473C501.74 405.83 502.602 401.885 502.684 397.843L502.911 381.022C469.06 364.162 479.288 369.395 473.562 365.701L473.161 391.353Z" fill="url(#paint13_linear_15_3)"/>
<path d="M491.812 166.798L378.049 131.846C371.85 129.942 365.162 129.942 358.967 131.846L245.2 166.798C235.6 169.747 235.6 182.443 245.2 185.391L265.034 191.484C260.682 196.864 258.006 203.426 257.741 210.612C253.814 212.863 251.049 216.925 251.049 221.775C251.049 226.171 253.365 229.87 256.701 232.236L246.289 279.088C245.384 283.162 248.483 287.029 252.656 287.029H275.539C279.716 287.029 282.815 283.162 281.91 279.088L271.498 232.236C274.834 229.87 277.15 226.171 277.15 221.775C277.15 217.056 274.512 213.108 270.764 210.816C271.074 204.69 274.206 199.274 279.202 195.84L358.963 220.347C362.658 221.481 369.746 222.896 378.045 220.347L491.812 185.395C501.416 182.443 501.416 169.751 491.812 166.798ZM381.879 232.823C370.243 236.396 360.329 234.422 355.129 232.823L295.984 214.654L290.201 260.927C290.201 275.344 325.259 287.029 368.506 287.029C411.753 287.029 446.811 275.344 446.811 260.927L441.028 214.65L381.879 232.823Z" fill="url(#paint14_linear_15_3)"/>
<path d="M497.23 161.38L383.467 126.428C377.268 124.524 370.58 124.524 364.385 126.428L250.618 161.38C241.018 164.329 241.018 177.025 250.618 179.973L270.451 186.067C266.1 191.446 263.424 198.008 263.159 205.194C259.232 207.445 256.467 211.507 256.467 216.357C256.467 220.753 258.783 224.452 262.119 226.818L251.707 273.67C250.802 277.744 253.901 281.611 258.074 281.611H280.957C285.134 281.611 288.233 277.744 287.328 273.67L276.916 226.818C280.252 224.452 282.568 220.753 282.568 216.357C282.568 211.638 279.93 207.69 276.182 205.398C276.492 199.272 279.624 193.856 284.62 190.422L364.381 214.929C368.076 216.063 375.164 217.478 383.463 214.929L497.23 179.978C506.834 177.025 506.834 164.333 497.23 161.38ZM387.297 227.405C375.661 230.978 365.747 229.004 360.547 227.405L301.402 209.236L295.619 255.509C295.619 269.926 330.677 281.611 373.924 281.611C417.171 281.611 452.229 269.926 452.229 255.509L446.446 209.232L387.297 227.405Z" fill="url(#paint15_linear_15_3)"/>
<circle cx="1212" cy="112" r="112" fill="url(#paint16_linear_15_3)"/>
<circle cx="1126" cy="611" r="63" fill="url(#paint17_linear_15_3)"/>
<circle cx="226.5" cy="673.5" r="151.5" fill="url(#paint18_linear_15_3)"/>
<circle cx="89" cy="112" r="89" fill="url(#paint19_linear_15_3)"/>
<defs>
<linearGradient id="paint0_linear_15_3" x1="1020.89" y1="260.448" x2="1020.89" y2="403.459" gradientUnits="userSpaceOnUse">
<stop stop-color="#00D609"/>
<stop offset="1" stop-color="#002CC8"/>
</linearGradient>
<linearGradient id="paint1_linear_15_3" x1="1015.47" y1="265.866" x2="1015.47" y2="408.877" gradientUnits="userSpaceOnUse">
<stop stop-color="#00D609"/>
<stop offset="0.0001" stop-color="#00FF0B"/>
<stop offset="1" stop-color="#0038FF"/>
</linearGradient>
<linearGradient id="paint2_linear_15_3" x1="692.762" y1="440.863" x2="816.066" y2="327.293" gradientUnits="userSpaceOnUse">
<stop stop-color="#00C7A3"/>
<stop offset="1" stop-color="#000D84"/>
</linearGradient>
<linearGradient id="paint3_linear_15_3" x1="688.7" y1="436.801" x2="812.004" y2="323.231" gradientUnits="userSpaceOnUse">
<stop stop-color="#00FFD1"/>
<stop offset="1" stop-color="#001AFF"/>
</linearGradient>
<linearGradient id="paint4_linear_15_3" x1="292.739" y1="200.097" x2="1072.92" y2="462.865" gradientUnits="userSpaceOnUse">
<stop stop-color="#009F10"/>
<stop offset="1" stop-color="#01AACF"/>
</linearGradient>
<linearGradient id="paint5_linear_15_3" x1="292.739" y1="200.097" x2="1072.92" y2="462.865" gradientUnits="userSpaceOnUse">
<stop stop-color="#009F10"/>
<stop offset="1" stop-color="#01AACF"/>
</linearGradient>
<linearGradient id="paint6_linear_15_3" x1="292.739" y1="200.097" x2="1072.92" y2="462.865" gradientUnits="userSpaceOnUse">
<stop stop-color="#009F10"/>
<stop offset="1" stop-color="#01AACF"/>
</linearGradient>
<linearGradient id="paint7_linear_15_3" x1="292.739" y1="200.097" x2="1072.92" y2="462.865" gradientUnits="userSpaceOnUse">
<stop stop-color="#009F10"/>
<stop offset="1" stop-color="#01AACF"/>
</linearGradient>
<linearGradient id="paint8_linear_15_3" x1="288.6" y1="194.679" x2="1068.78" y2="457.447" gradientUnits="userSpaceOnUse">
<stop stop-color="#05CE19"/>
<stop offset="1" stop-color="#00D1FF"/>
</linearGradient>
<linearGradient id="paint9_linear_15_3" x1="288.6" y1="194.679" x2="1068.78" y2="457.447" gradientUnits="userSpaceOnUse">
<stop stop-color="#05CE19"/>
<stop offset="1" stop-color="#00D1FF"/>
</linearGradient>
<linearGradient id="paint10_linear_15_3" x1="288.6" y1="194.679" x2="1068.78" y2="457.447" gradientUnits="userSpaceOnUse">
<stop stop-color="#05CE19"/>
<stop offset="1" stop-color="#00D1FF"/>
</linearGradient>
<linearGradient id="paint11_linear_15_3" x1="288.6" y1="194.679" x2="1068.78" y2="457.447" gradientUnits="userSpaceOnUse">
<stop stop-color="#05CE19"/>
<stop offset="1" stop-color="#00D1FF"/>
</linearGradient>
<linearGradient id="paint12_linear_15_3" x1="448.729" y1="205.686" x2="533.55" y2="426.652" gradientUnits="userSpaceOnUse">
<stop stop-color="#0008BC"/>
<stop offset="1" stop-color="#028D74"/>
</linearGradient>
<linearGradient id="paint13_linear_15_3" x1="446.561" y1="210.556" x2="531.382" y2="431.522" gradientUnits="userSpaceOnUse">
<stop stop-color="#000AFF"/>
<stop offset="1" stop-color="#00EAC0"/>
</linearGradient>
<linearGradient id="paint14_linear_15_3" x1="252.899" y1="280.765" x2="489.933" y2="280.765" gradientUnits="userSpaceOnUse">
<stop stop-color="#10C900"/>
<stop offset="1" stop-color="#03B0D6"/>
</linearGradient>
<linearGradient id="paint15_linear_15_3" x1="258.317" y1="275.347" x2="495.351" y2="275.347" gradientUnits="userSpaceOnUse">
<stop stop-color="#14FF00"/>
<stop offset="1" stop-color="#00D1FF"/>
</linearGradient>
<linearGradient id="paint16_linear_15_3" x1="1212" y1="0" x2="1212" y2="224" gradientUnits="userSpaceOnUse">
<stop stop-color="#00FFE0"/>
<stop offset="1" stop-color="#00F035"/>
</linearGradient>
<linearGradient id="paint17_linear_15_3" x1="1126" y1="548" x2="1126" y2="674" gradientUnits="userSpaceOnUse">
<stop stop-color="#00FFE0"/>
<stop offset="1" stop-color="#00F035"/>
</linearGradient>
<linearGradient id="paint18_linear_15_3" x1="226.5" y1="522" x2="226.5" y2="825" gradientUnits="userSpaceOnUse">
<stop stop-color="#00FFE0"/>
<stop offset="1" stop-color="#00F035"/>
</linearGradient>
<linearGradient id="paint19_linear_15_3" x1="89" y1="23" x2="89" y2="201" gradientUnits="userSpaceOnUse">
<stop stop-color="#00FFA3"/>
<stop offset="1" stop-color="#00CB6A"/>
</linearGradient>
</defs>
</svg>
