<svg width="1848" height="1024" viewBox="0 0 1848 1024" fill="none" xmlns="http://www.w3.org/2000/svg">
<rect width="1848" height="1024" fill="white"/>
<g id="code" class="pc-anim">
<path d="M1239.41 502.319L1222.37 497.375C1220.58 496.872 1219.57 495.001 1220.08 493.213L1258.21 361.868C1258.71 360.08 1260.58 359.074 1262.37 359.577L1279.41 364.521C1281.2 365.024 1282.2 366.896 1281.7 368.683L1243.57 500.029C1243.04 501.817 1241.2 502.85 1239.41 502.319ZM1207.56 470.978L1219.71 458.016C1221 456.647 1220.92 454.469 1219.49 453.212L1194.18 430.948L1219.49 408.685C1220.92 407.428 1221.03 405.249 1219.71 403.88L1207.56 390.919C1206.31 389.578 1204.18 389.494 1202.81 390.779L1162.56 428.49C1161.14 429.803 1161.14 432.066 1162.56 433.378L1202.81 471.117C1204.18 472.402 1206.31 472.346 1207.56 470.978V470.978ZM1298.96 471.145L1339.22 433.406C1340.64 432.093 1340.64 429.831 1339.22 428.518L1298.96 390.751C1297.62 389.494 1295.5 389.55 1294.21 390.891L1282.06 403.852C1280.78 405.221 1280.86 407.4 1282.29 408.657L1307.59 430.948L1282.29 453.212C1280.86 454.469 1280.75 456.647 1282.06 458.016L1294.21 470.978C1295.47 472.346 1297.59 472.402 1298.96 471.145V471.145Z" fill="url(#paint0_linear_21_2)"/>
<path d="M1233.99 507.737L1216.95 502.793C1215.16 502.29 1214.16 500.419 1214.66 498.631L1252.79 367.286C1253.29 365.498 1255.16 364.492 1256.95 364.995L1273.99 369.939C1275.78 370.442 1276.78 372.314 1276.28 374.101L1238.15 505.447C1237.62 507.234 1235.78 508.268 1233.99 507.737ZM1202.14 476.395L1214.3 463.434C1215.58 462.065 1215.5 459.886 1214.07 458.629L1188.76 436.366L1214.07 414.103C1215.5 412.846 1215.61 410.667 1214.3 409.298L1202.14 396.337C1200.89 394.996 1198.76 394.912 1197.4 396.197L1157.14 433.908C1155.72 435.221 1155.72 437.483 1157.14 438.796L1197.4 476.535C1198.76 477.82 1200.89 477.764 1202.14 476.395V476.395ZM1293.54 476.563L1333.8 438.824C1335.22 437.511 1335.22 435.249 1333.8 433.936L1293.54 396.169C1292.2 394.912 1290.08 394.968 1288.8 396.309L1276.64 409.27C1275.36 410.639 1275.44 412.818 1276.87 414.075L1302.18 436.366L1276.87 458.629C1275.44 459.886 1275.33 462.065 1276.64 463.434L1288.8 476.395C1290.05 477.764 1292.18 477.82 1293.54 476.563V476.563Z" fill="url(#paint1_linear_21_2)"/>
</g>
<g id="rocket" class="pc-anim">
<path d="M1022.61 430.97C1013.9 434.122 1004.37 440.462 996.465 448.364L944.896 499.933C942.819 499.643 940.823 499.681 938.99 500.063L976.247 462.806C944.278 483.852 923.429 466.524 901.153 488.799L901.153 488.8L924.259 511.906L921.37 514.794L898.264 491.688C893.479 496.473 894.772 505.525 901.153 511.906L912.706 523.459C908.518 527.646 908.74 531.046 911.262 533.567L918.482 540.788C921.006 543.312 924.406 543.529 928.591 539.344L931.479 542.232C927.292 546.42 927.514 549.82 930.035 552.341L937.256 559.562C939.78 562.086 943.18 562.302 947.365 558.118L958.918 569.671C965.298 576.051 974.35 577.344 979.135 572.559L956.029 549.453L958.918 546.565L982.024 569.671L982.024 569.67C1004.3 547.394 986.971 526.545 1008.02 494.576L970.76 531.833C971.142 530 971.18 528.004 970.89 525.927L1022.46 474.359C1030.36 466.456 1036.7 456.926 1039.85 448.211C1042.7 440.343 1042.68 433.922 1039.79 431.035C1036.9 428.148 1030.48 428.124 1022.61 430.97V430.97ZM1019.57 465.694C1019.19 466.077 1018.67 466.292 1018.13 466.292C1017.58 466.292 1017.07 466.077 1016.68 465.694L1005.13 454.141C1004.75 453.758 1004.53 453.238 1004.53 452.697C1004.53 452.155 1004.75 451.636 1005.13 451.253C1010.89 445.493 1025.34 459.928 1019.57 465.694Z" fill="url(#paint2_linear_21_2)"/>
<path d="M1018.55 426.908C1009.84 430.06 1000.31 436.4 992.403 444.302L940.834 495.871C938.757 495.581 936.761 495.619 934.928 496.001L972.185 458.743C940.216 479.79 919.367 462.462 897.091 484.737L897.091 484.738L920.197 507.844L917.308 510.732L894.202 487.626C889.417 492.411 890.71 501.463 897.091 507.844L908.644 519.397C904.456 523.584 904.678 526.984 907.2 529.505L914.42 536.726C916.944 539.25 920.344 539.466 924.529 535.282L927.417 538.17C923.23 542.358 923.452 545.758 925.973 548.279L933.194 555.5C935.718 558.024 939.118 558.24 943.303 554.055L954.856 565.608C961.236 571.989 970.288 573.282 975.073 568.497L951.967 545.391L954.856 542.502L977.961 565.608L977.962 565.608C1000.24 543.332 982.909 522.483 1003.96 490.514L966.698 527.771C967.08 525.938 967.118 523.942 966.828 521.865L1018.4 470.296C1026.3 462.394 1032.64 452.864 1035.79 444.149C1038.64 436.281 1038.61 429.86 1035.73 426.973C1032.84 424.086 1026.42 424.062 1018.55 426.908V426.908ZM1015.51 461.632C1015.13 462.015 1014.61 462.23 1014.06 462.23C1013.52 462.23 1013 462.015 1012.62 461.632L1001.07 450.079C1000.68 449.696 1000.47 449.176 1000.47 448.635C1000.47 448.093 1000.68 447.573 1001.07 447.19C1006.83 441.43 1021.27 455.866 1015.51 461.632Z" fill="url(#paint3_linear_21_2)"/>
</g>
<g id="text">
<path d="M539.862 561.865V364.85H617.591C632.534 364.85 645.264 367.704 655.782 373.412C666.299 379.056 674.316 386.912 679.831 396.981C685.411 406.985 688.201 418.529 688.201 431.612C688.201 444.695 685.379 456.239 679.735 466.244C674.092 476.248 665.915 484.04 655.205 489.62C644.559 495.2 631.668 497.989 616.533 497.989H566.99V464.608H609.799C617.815 464.608 624.421 463.229 629.616 460.472C634.875 457.65 638.787 453.77 641.352 448.832C643.981 443.829 645.296 438.09 645.296 431.612C645.296 425.071 643.981 419.363 641.352 414.489C638.787 409.551 634.875 405.735 629.616 403.041C624.357 400.283 617.687 398.905 609.606 398.905H581.516V561.865H539.862Z" fill="url(#paint4_linear_21_2)"/>
<path d="M889.088 433.825H846.953C846.183 428.374 844.612 423.532 842.239 419.299C839.866 415.002 836.82 411.346 833.1 408.332C829.38 405.318 825.083 403.009 820.209 401.406C815.399 399.803 810.173 399.001 804.529 399.001C794.332 399.001 785.45 401.534 777.882 406.601C770.314 411.603 764.446 418.914 760.278 428.534C756.109 438.09 754.025 449.698 754.025 463.358C754.025 477.403 756.109 489.203 760.278 498.759C764.51 508.315 770.41 515.53 777.978 520.404C785.546 525.278 794.3 527.715 804.24 527.715C809.82 527.715 814.983 526.977 819.728 525.502C824.538 524.027 828.803 521.879 832.523 519.057C836.242 516.171 839.321 512.676 841.758 508.571C844.259 504.467 845.991 499.785 846.953 494.526L889.088 494.719C887.997 503.761 885.272 512.483 880.911 520.885C876.614 529.222 870.81 536.693 863.499 543.299C856.252 549.84 847.594 555.035 837.525 558.883C827.52 562.667 816.201 564.559 803.567 564.559C785.995 564.559 770.282 560.583 756.43 552.63C742.641 544.678 731.739 533.166 723.722 518.095C715.77 503.024 711.793 484.778 711.793 463.358C711.793 441.873 715.834 423.596 723.914 408.525C731.995 393.453 742.962 381.974 756.814 374.085C770.667 366.133 786.251 362.157 803.567 362.157C814.983 362.157 825.564 363.76 835.313 366.967C845.125 370.173 853.815 374.855 861.382 381.012C868.95 387.104 875.107 394.576 879.853 403.426C884.662 412.276 887.741 422.409 889.088 433.825Z" fill="url(#paint5_linear_21_2)"/>
<path d="M1100 463.358C1100 484.842 1095.93 503.12 1087.79 518.191C1079.71 533.262 1068.67 544.774 1054.69 552.726C1040.78 560.615 1025.13 564.559 1007.75 564.559C990.241 564.559 974.528 560.583 960.611 552.63C946.695 544.678 935.696 533.166 927.615 518.095C919.534 503.024 915.494 484.778 915.494 463.358C915.494 441.873 919.534 423.596 927.615 408.525C935.696 393.453 946.695 381.974 960.611 374.085C974.528 366.133 990.241 362.157 1007.75 362.157C1025.13 362.157 1040.78 366.133 1054.69 374.085C1068.67 381.974 1079.71 393.453 1087.79 408.525C1095.93 423.596 1100 441.873 1100 463.358ZM1057.77 463.358C1057.77 449.441 1055.69 437.705 1051.52 428.149C1047.41 418.593 1041.61 411.346 1034.11 406.408C1026.6 401.47 1017.82 399.001 1007.75 399.001C997.68 399.001 988.894 401.47 981.39 406.408C973.887 411.346 968.051 418.593 963.882 428.149C959.778 437.705 957.725 449.441 957.725 463.358C957.725 477.275 959.778 489.011 963.882 498.566C968.051 508.122 973.887 515.369 981.39 520.307C988.894 525.246 997.68 527.715 1007.75 527.715C1017.82 527.715 1026.6 525.246 1034.11 520.307C1041.61 515.369 1047.41 508.122 1051.52 498.566C1055.69 489.011 1057.77 477.275 1057.77 463.358Z" fill="url(#paint6_linear_21_2)"/>
<path d="M1200.7 561.865H1130.86V364.85H1201.28C1221.09 364.85 1238.15 368.794 1252.45 376.683C1266.76 384.507 1277.75 395.762 1285.45 410.448C1293.21 425.135 1297.09 442.707 1297.09 463.165C1297.09 483.688 1293.21 501.324 1285.45 516.075C1277.75 530.825 1266.69 542.144 1252.26 550.033C1237.9 557.921 1220.71 561.865 1200.7 561.865ZM1172.51 526.176H1198.97C1211.28 526.176 1221.64 523.995 1230.04 519.634C1238.51 515.209 1244.85 508.379 1249.09 499.144C1253.38 489.844 1255.53 477.852 1255.53 463.165C1255.53 448.607 1253.38 436.711 1249.09 427.476C1244.85 418.241 1238.54 411.443 1230.14 407.082C1221.73 402.721 1211.38 400.54 1199.06 400.54H1172.51V526.176Z" fill="url(#paint7_linear_21_2)"/>
<path d="M535.724 556.447V359.432H613.452C628.395 359.432 641.126 362.286 651.643 367.994C662.161 373.638 670.178 381.494 675.693 391.563C681.272 401.567 684.062 413.111 684.062 426.194C684.062 439.277 681.24 450.821 675.597 460.826C669.953 470.83 661.776 478.623 651.066 484.202C640.42 489.782 627.529 492.571 612.394 492.571H562.852V459.19H605.66C613.677 459.19 620.283 457.812 625.477 455.054C630.736 452.232 634.648 448.352 637.213 443.414C639.843 438.411 641.158 432.672 641.158 426.194C641.158 419.653 639.843 413.945 637.213 409.071C634.648 404.133 630.736 400.317 625.477 397.623C620.218 394.866 613.549 393.487 605.468 393.487H577.378V556.447H535.724Z" fill="url(#paint8_linear_21_2)"/>
<path d="M884.949 428.407H842.814C842.045 422.956 840.473 418.114 838.1 413.881C835.728 409.584 832.681 405.928 828.962 402.914C825.242 399.9 820.945 397.591 816.071 395.988C811.261 394.385 806.034 393.583 800.391 393.583C790.193 393.583 781.311 396.116 773.743 401.183C766.176 406.185 760.308 413.496 756.139 423.116C751.971 432.672 749.886 444.28 749.886 457.94C749.886 471.985 751.971 483.785 756.139 493.341C760.372 502.897 766.272 510.112 773.84 514.986C781.407 519.86 790.161 522.297 800.102 522.297C805.681 522.297 810.844 521.559 815.59 520.084C820.4 518.609 824.665 516.461 828.384 513.639C832.104 510.753 835.182 507.258 837.619 503.153C840.121 499.049 841.852 494.367 842.814 489.108L884.949 489.301C883.859 498.343 881.133 507.065 876.772 515.467C872.475 523.804 866.671 531.275 859.36 537.881C852.113 544.422 843.455 549.617 833.387 553.465C823.382 557.249 812.063 559.141 799.429 559.141C781.856 559.141 766.144 555.165 752.291 547.212C738.503 539.26 727.6 527.748 719.584 512.677C711.631 497.606 707.655 479.36 707.655 457.94C707.655 436.455 711.695 418.178 719.776 403.107C727.857 388.035 738.823 376.556 752.676 368.667C766.529 360.715 782.113 356.739 799.429 356.739C810.844 356.739 821.426 358.342 831.174 361.549C840.986 364.755 849.676 369.437 857.244 375.594C864.812 381.686 870.968 389.158 875.714 398.008C880.524 406.858 883.602 416.991 884.949 428.407Z" fill="url(#paint9_linear_21_2)"/>
<path d="M1095.86 457.94C1095.86 479.424 1091.79 497.702 1083.65 512.773C1075.57 527.844 1064.54 539.356 1050.56 547.308C1036.64 555.197 1020.99 559.141 1003.61 559.141C986.102 559.141 970.39 555.165 956.473 547.212C942.556 539.26 931.557 527.748 923.477 512.677C915.396 497.606 911.356 479.36 911.356 457.94C911.356 436.455 915.396 418.178 923.477 403.107C931.557 388.035 942.556 376.556 956.473 368.667C970.39 360.715 986.102 356.739 1003.61 356.739C1020.99 356.739 1036.64 360.715 1050.56 368.667C1064.54 376.556 1075.57 388.035 1083.65 403.107C1091.79 418.178 1095.86 436.455 1095.86 457.94ZM1053.63 457.94C1053.63 444.023 1051.55 432.287 1047.38 422.731C1043.28 413.175 1037.47 405.928 1029.97 400.99C1022.47 396.052 1013.68 393.583 1003.61 393.583C993.541 393.583 984.755 396.052 977.252 400.99C969.748 405.928 963.912 413.175 959.744 422.731C955.639 432.287 953.587 444.023 953.587 457.94C953.587 471.857 955.639 483.593 959.744 493.149C963.912 502.704 969.748 509.951 977.252 514.889C984.755 519.828 993.541 522.297 1003.61 522.297C1013.68 522.297 1022.47 519.828 1029.97 514.889C1037.47 509.951 1043.28 502.704 1047.38 493.149C1051.55 483.593 1053.63 471.857 1053.63 457.94Z" fill="url(#paint10_linear_21_2)"/>
<path d="M1196.56 556.447H1126.72V359.432H1197.14C1216.95 359.432 1234.01 363.376 1248.32 371.265C1262.62 379.089 1273.62 390.344 1281.31 405.031C1289.07 419.717 1292.95 437.289 1292.95 457.747C1292.95 478.27 1289.07 495.906 1281.31 510.657C1273.62 525.407 1262.55 536.727 1248.12 544.615C1233.76 552.503 1216.57 556.447 1196.56 556.447ZM1168.37 520.758H1194.83C1207.14 520.758 1217.5 518.577 1225.9 514.216C1234.37 509.791 1240.72 502.961 1244.95 493.726C1249.25 484.427 1251.39 472.434 1251.39 457.747C1251.39 443.189 1249.25 431.293 1244.95 422.058C1240.72 412.823 1234.4 406.025 1226 401.664C1217.6 397.303 1207.24 395.122 1194.93 395.122H1168.37V520.758Z" fill="url(#paint11_linear_21_2)"/>
</g>
<g id="person" class="pc-anim">
<path d="M715.321 338.169C726.756 333.78 732.472 320.941 728.082 309.506C723.693 298.071 710.854 292.355 699.419 296.744C687.984 301.134 682.268 313.972 686.657 325.407C691.047 336.842 703.886 342.559 715.321 338.169ZM780.796 386.854L768.787 385.622L759.731 374.542C746 357.732 723.141 351.06 703.059 358.719C687.508 364.639 680.61 372.337 666.973 385.048C659.093 392.38 654.189 402.431 653.179 413.216L652.541 420.194C651.792 428.304 657.691 435.545 665.774 436.354C673.815 437.179 680.953 431.27 681.745 423.143L682.383 416.165C682.734 412.565 684.326 409.231 686.952 406.787L696.728 397.687L700.224 426.398C701.425 436.234 707.502 444.843 716.393 449.302L753.073 467.601C757.489 469.818 761.263 473.072 764.091 477.086L784.129 505.685C788.817 512.351 798.065 514 804.731 509.312C811.398 504.624 813.047 495.377 808.359 488.71L784.037 453.983C781.209 449.969 777.418 446.671 773.019 444.498L745.153 430.588L741.195 398.095L746.302 404.304C751.256 410.373 758.378 414.224 766.109 415.019L778.118 416.251C786.158 417.076 793.297 411.167 794.089 403.041C794.811 394.99 788.879 387.663 780.796 386.854V386.854ZM705.328 485.483C705.289 489.509 704.427 493.454 702.762 497.113L689.485 527.014C686.162 534.478 689.525 543.238 696.989 546.561C704.453 549.885 713.17 546.539 716.493 539.074L732.286 503.603C733.908 499.961 734.77 496.016 734.852 491.974L735.079 475.152C701.228 458.292 711.456 463.526 705.73 459.832L705.328 485.483Z" fill="url(#paint12_linear_21_2)"/>
<path d="M713.153 343.039C724.588 338.649 730.304 325.81 725.914 314.375C721.525 302.94 708.686 297.224 697.251 301.613C685.816 306.003 680.1 318.842 684.489 330.277C688.879 341.712 701.718 347.428 713.153 343.039ZM778.628 391.724L766.619 390.491L757.563 379.412C743.833 362.601 720.973 355.929 700.891 363.589C685.34 369.508 678.442 377.206 664.805 389.917C656.925 397.249 652.021 407.301 651.011 418.085L650.373 425.063C649.624 433.173 655.523 440.415 663.607 441.223C671.647 442.048 678.785 436.139 679.577 428.013L680.215 421.034C680.566 417.434 682.158 414.1 684.785 411.656L694.56 402.557L698.056 431.267C699.257 441.104 705.334 449.713 714.225 454.172L750.905 472.471C755.321 474.687 759.095 477.942 761.923 481.956L781.961 510.554C786.649 517.221 795.897 518.869 802.563 514.181C809.23 509.493 810.879 500.246 806.191 493.579L781.869 458.852C779.041 454.838 775.25 451.54 770.851 449.367L742.985 435.458L739.027 402.964L744.134 409.173C749.088 415.242 756.21 419.093 763.942 419.888L775.95 421.12C783.99 421.945 791.129 416.036 791.921 407.91C792.643 399.86 786.711 392.532 778.628 391.724V391.724ZM703.161 490.353C703.121 494.378 702.259 498.323 700.594 501.982L687.317 531.883C683.994 539.347 687.357 548.107 694.821 551.431C702.285 554.754 711.002 551.408 714.325 543.944L730.118 508.473C731.74 504.83 732.602 500.885 732.684 496.843L732.911 480.022C699.06 463.162 709.288 468.395 703.562 464.701L703.161 490.353Z" fill="url(#paint13_linear_21_2)"/>
</g>
<g id="learn" class="pc-anim">
<path d="M721.812 265.798L608.049 230.846C601.85 228.942 595.162 228.942 588.967 230.846L475.2 265.798C465.6 268.747 465.6 281.443 475.2 284.391L495.034 290.484C490.682 295.864 488.006 302.426 487.741 309.612C483.814 311.863 481.049 315.925 481.049 320.775C481.049 325.171 483.365 328.87 486.701 331.236L476.289 378.088C475.384 382.162 478.483 386.029 482.656 386.029H505.539C509.716 386.029 512.815 382.162 511.91 378.088L501.498 331.236C504.834 328.87 507.15 325.171 507.15 320.775C507.15 316.056 504.512 312.108 500.764 309.816C501.074 303.69 504.206 298.274 509.202 294.84L588.963 319.347C592.658 320.481 599.746 321.896 608.045 319.347L721.812 284.395C731.416 281.443 731.416 268.751 721.812 265.798V265.798ZM611.879 331.823C600.243 335.396 590.329 333.422 585.129 331.823L525.984 313.654L520.201 359.927C520.201 374.344 555.259 386.029 598.506 386.029C641.753 386.029 676.811 374.344 676.811 359.927L671.028 313.65L611.879 331.823Z" fill="url(#paint14_linear_21_2)"/>
<path d="M727.23 260.38L613.467 225.428C607.268 223.524 600.58 223.524 594.385 225.428L480.618 260.38C471.018 263.329 471.018 276.025 480.618 278.973L500.451 285.067C496.1 290.446 493.424 297.008 493.159 304.194C489.232 306.445 486.467 310.507 486.467 315.357C486.467 319.753 488.783 323.452 492.119 325.818L481.707 372.67C480.802 376.744 483.901 380.611 488.074 380.611H510.957C515.134 380.611 518.233 376.744 517.328 372.67L506.916 325.818C510.252 323.452 512.568 319.753 512.568 315.357C512.568 310.638 509.93 306.69 506.182 304.398C506.492 298.272 509.624 292.856 514.62 289.422L594.381 313.929C598.076 315.063 605.164 316.478 613.463 313.929L727.23 278.978C736.834 276.025 736.834 263.333 727.23 260.38V260.38ZM617.297 326.405C605.661 329.978 595.747 328.004 590.547 326.405L531.402 308.236L525.619 354.509C525.619 368.926 560.677 380.611 603.924 380.611C647.171 380.611 682.229 368.926 682.229 354.509L676.446 308.232L617.297 326.405Z" fill="url(#paint15_linear_21_2)"/>
</g>
<circle class="pc-anim" cx="1442" cy="211" r="112" fill="url(#paint16_linear_21_2)"/>
<circle class="pc-anim" cx="1356" cy="710" r="63" fill="url(#paint17_linear_21_2)"/>
<circle class="pc-anim" cx="456.5" cy="772.5" r="151.5" fill="url(#paint18_linear_21_2)"/>
<circle class="pc-anim" cx="319" cy="211" r="89" fill="url(#paint19_linear_21_2)"/>
<defs>
<linearGradient id="paint0_linear_21_2" x1="1250.89" y1="359.448" x2="1250.89" y2="502.459" gradientUnits="userSpaceOnUse">
<stop stop-color="#00D609"/>
<stop offset="1" stop-color="#002CC8"/>
</linearGradient>
<linearGradient id="paint1_linear_21_2" x1="1245.47" y1="364.866" x2="1245.47" y2="507.877" gradientUnits="userSpaceOnUse">
<stop stop-color="#00D609"/>
<stop offset="0.0001" stop-color="#00FF0B"/>
<stop offset="1" stop-color="#0038FF"/>
</linearGradient>
<linearGradient id="paint2_linear_21_2" x1="922.762" y1="539.863" x2="1046.07" y2="426.293" gradientUnits="userSpaceOnUse">
<stop stop-color="#00C7A3"/>
<stop offset="1" stop-color="#000D84"/>
</linearGradient>
<linearGradient id="paint3_linear_21_2" x1="918.7" y1="535.801" x2="1042" y2="422.231" gradientUnits="userSpaceOnUse">
<stop stop-color="#00FFD1"/>
<stop offset="1" stop-color="#001AFF"/>
</linearGradient>
<linearGradient id="paint4_linear_21_2" x1="522.739" y1="299.097" x2="1302.92" y2="561.865" gradientUnits="userSpaceOnUse">
<stop stop-color="#009F10"/>
<stop offset="1" stop-color="#01AACF"/>
</linearGradient>
<linearGradient id="paint5_linear_21_2" x1="522.739" y1="299.097" x2="1302.92" y2="561.865" gradientUnits="userSpaceOnUse">
<stop stop-color="#009F10"/>
<stop offset="1" stop-color="#01AACF"/>
</linearGradient>
<linearGradient id="paint6_linear_21_2" x1="522.739" y1="299.097" x2="1302.92" y2="561.865" gradientUnits="userSpaceOnUse">
<stop stop-color="#009F10"/>
<stop offset="1" stop-color="#01AACF"/>
</linearGradient>
<linearGradient id="paint7_linear_21_2" x1="522.739" y1="299.097" x2="1302.92" y2="561.865" gradientUnits="userSpaceOnUse">
<stop stop-color="#009F10"/>
<stop offset="1" stop-color="#01AACF"/>
</linearGradient>
<linearGradient id="paint8_linear_21_2" x1="518.6" y1="293.679" x2="1298.78" y2="556.447" gradientUnits="userSpaceOnUse">
<stop stop-color="#05CE19"/>
<stop offset="1" stop-color="#00D1FF"/>
</linearGradient>
<linearGradient id="paint9_linear_21_2" x1="518.6" y1="293.679" x2="1298.78" y2="556.447" gradientUnits="userSpaceOnUse">
<stop stop-color="#05CE19"/>
<stop offset="1" stop-color="#00D1FF"/>
</linearGradient>
<linearGradient id="paint10_linear_21_2" x1="518.6" y1="293.679" x2="1298.78" y2="556.447" gradientUnits="userSpaceOnUse">
<stop stop-color="#05CE19"/>
<stop offset="1" stop-color="#00D1FF"/>
</linearGradient>
<linearGradient id="paint11_linear_21_2" x1="518.6" y1="293.679" x2="1298.78" y2="556.447" gradientUnits="userSpaceOnUse">
<stop stop-color="#05CE19"/>
<stop offset="1" stop-color="#00D1FF"/>
</linearGradient>
<linearGradient id="paint12_linear_21_2" x1="678.729" y1="304.686" x2="763.55" y2="525.652" gradientUnits="userSpaceOnUse">
<stop stop-color="#0008BC"/>
<stop offset="1" stop-color="#028D74"/>
</linearGradient>
<linearGradient id="paint13_linear_21_2" x1="676.561" y1="309.556" x2="761.382" y2="530.522" gradientUnits="userSpaceOnUse">
<stop stop-color="#000AFF"/>
<stop offset="1" stop-color="#00EAC0"/>
</linearGradient>
<linearGradient id="paint14_linear_21_2" x1="482.899" y1="379.765" x2="719.933" y2="379.765" gradientUnits="userSpaceOnUse">
<stop stop-color="#10C900"/>
<stop offset="1" stop-color="#03B0D6"/>
</linearGradient>
<linearGradient id="paint15_linear_21_2" x1="488.317" y1="374.347" x2="725.351" y2="374.347" gradientUnits="userSpaceOnUse">
<stop stop-color="#14FF00"/>
<stop offset="1" stop-color="#00D1FF"/>
</linearGradient>
<linearGradient id="paint16_linear_21_2" x1="1442" y1="99" x2="1442" y2="323" gradientUnits="userSpaceOnUse">
<stop stop-color="#00FFE0"/>
<stop offset="1" stop-color="#00F035"/>
</linearGradient>
<linearGradient id="paint17_linear_21_2" x1="1356" y1="647" x2="1356" y2="773" gradientUnits="userSpaceOnUse">
<stop stop-color="#00FFE0"/>
<stop offset="1" stop-color="#00F035"/>
</linearGradient>
<linearGradient id="paint18_linear_21_2" x1="456.5" y1="621" x2="456.5" y2="924" gradientUnits="userSpaceOnUse">
<stop stop-color="#00FFE0"/>
<stop offset="1" stop-color="#00F035"/>
</linearGradient>
<linearGradient id="paint19_linear_21_2" x1="319" y1="122" x2="319" y2="300" gradientUnits="userSpaceOnUse">
<stop stop-color="#00FFA3"/>
<stop offset="1" stop-color="#00CB6A"/>
</linearGradient>
</defs>
</svg>
