<svg width="45" height="45" viewBox="0 0 45 45" fill="none" xmlns="http://www.w3.org/2000/svg">
<path d="M13.125 28.125H16.875C16.875 30.15 19.4438 31.875 22.5 31.875C25.5562 31.875 28.125 30.15 28.125 28.125C28.125 26.0625 26.175 25.3125 22.05 24.3188C18.075 23.325 13.125 22.0875 13.125 16.875C13.125 13.5188 15.8813 10.6687 19.6875 9.7125V5.625H25.3125V9.7125C29.1187 10.6687 31.875 13.5188 31.875 16.875H28.125C28.125 14.85 25.5562 13.125 22.5 13.125C19.4438 13.125 16.875 14.85 16.875 16.875C16.875 18.9375 18.825 19.6875 22.95 20.6812C26.925 21.675 31.875 22.9125 31.875 28.125C31.875 31.4812 29.1187 34.3312 25.3125 35.2875V39.375H19.6875V35.2875C15.8813 34.3312 13.125 31.4812 13.125 28.125Z" fill="white"/>
</svg>
