<svg width="41" height="24" viewBox="0 0 41 24" fill="none" xmlns="http://www.w3.org/2000/svg">
<path d="M0.135582 23.4557V21.422L12.6091 2.80203H0V0.316358H15.9535V2.35009L3.47994 20.97H16.0891V23.4557H0.135582Z" fill="url(#paint0_linear_2_9)"/>
<path d="M14.9032 23.4557V0.316358H28.8681V2.80203H17.7052V10.6206H28.145V13.1063H17.7052V20.97H29.0489V23.4557H14.9032Z" fill="url(#paint1_linear_2_9)"/>
<path d="M41 7.5474H38.198C38.0323 6.74144 37.7423 6.0334 37.328 5.42328C36.9212 4.81316 36.4241 4.30096 35.8366 3.88668C35.2566 3.46487 34.6126 3.14852 33.9045 2.93761C33.1965 2.7267 32.4583 2.62125 31.69 2.62125C30.289 2.62125 29.0198 2.97527 27.8824 3.68331C26.7526 4.39135 25.8525 5.43458 25.1821 6.813C24.5193 8.19141 24.1878 9.88242 24.1878 11.886C24.1878 13.8896 24.5193 15.5806 25.1821 16.959C25.8525 18.3375 26.7526 19.3807 27.8824 20.0887C29.0198 20.7968 30.289 21.1508 31.69 21.1508C32.4583 21.1508 33.1965 21.0453 33.9045 20.8344C34.6126 20.6235 35.2566 20.3109 35.8366 19.8967C36.4241 19.4748 36.9212 18.9589 37.328 18.3488C37.7423 17.7311 38.0323 17.0231 38.198 16.2246H41C40.7891 17.4072 40.4049 18.4655 39.8475 19.3995C39.2902 20.3335 38.5972 21.1282 37.7686 21.7835C36.9401 22.4313 36.0098 22.9247 34.9779 23.2636C33.9535 23.6026 32.8575 23.772 31.69 23.772C29.7166 23.772 27.9615 23.29 26.4249 22.3258C24.8883 21.3617 23.6794 19.9908 22.7981 18.2132C21.9168 16.4356 21.4762 14.3265 21.4762 11.886C21.4762 9.44555 21.9168 7.33649 22.7981 5.55886C23.6794 3.78123 24.8883 2.41035 26.4249 1.44621C27.9615 0.482069 29.7166 0 31.69 0C32.8575 0 33.9535 0.169478 34.9779 0.508433C36.0098 0.847388 36.9401 1.34452 37.7686 1.99983C38.5972 2.64761 39.2902 3.43851 39.8475 4.37252C40.4049 5.299 40.7891 6.35729 41 7.5474Z" fill="url(#paint2_linear_2_9)"/>
<defs>
<linearGradient id="paint0_linear_2_9" x1="41" y1="11.886" x2="-3.76492e-06" y2="11.886" gradientUnits="userSpaceOnUse">
<stop stop-color="#8FFF00"/>
<stop offset="1" stop-color="#00B2CA"/>
</linearGradient>
<linearGradient id="paint1_linear_2_9" x1="33.1417" y1="11.886" x2="7.175" y2="11.886" gradientUnits="userSpaceOnUse">
<stop stop-color="#00FF66"/>
<stop offset="1" stop-color="#8FFF00"/>
</linearGradient>
<linearGradient id="paint2_linear_2_9" x1="42.8042" y1="11.8426" x2="19.5781" y2="11.8426" gradientUnits="userSpaceOnUse">
<stop stop-color="#00FFD1"/>
<stop offset="1" stop-color="#00FF66"/>
</linearGradient>
</defs>
</svg>
