<svg width="154" height="154" viewBox="0 0 154 154" fill="none" xmlns="http://www.w3.org/2000/svg">
<path d="M83.4166 121.917H89.8333C91.5351 121.917 93.1672 122.593 94.3705 123.796C95.5739 124.999 96.2499 126.632 96.2499 128.333H141.167V141.167H96.2499C96.2499 142.868 95.5739 144.501 94.3705 145.704C93.1672 146.907 91.5351 147.583 89.8333 147.583H64.1666C62.4648 147.583 60.8327 146.907 59.6293 145.704C58.426 144.501 57.7499 142.868 57.7499 141.167H12.8333V128.333H57.7499C57.7499 126.632 58.426 124.999 59.6293 123.796C60.8327 122.593 62.4648 121.917 64.1666 121.917H70.5833V109.083H25.6666C23.9648 109.083 22.3327 108.407 21.1293 107.204C19.926 106.001 19.2499 104.368 19.2499 102.667V77C19.2499 75.2982 19.926 73.6661 21.1293 72.4627C22.3327 71.2594 23.9648 70.5833 25.6666 70.5833H128.333C130.035 70.5833 131.667 71.2594 132.871 72.4627C134.074 73.6661 134.75 75.2982 134.75 77V102.667C134.75 104.368 134.074 106.001 132.871 107.204C131.667 108.407 130.035 109.083 128.333 109.083H83.4166V121.917ZM25.6666 19.25H128.333C130.035 19.25 131.667 19.926 132.871 21.1294C134.074 22.3328 134.75 23.9649 134.75 25.6667V51.3333C134.75 53.0351 134.074 54.6672 132.871 55.8706C131.667 57.074 130.035 57.75 128.333 57.75H25.6666C23.9648 57.75 22.3327 57.074 21.1293 55.8706C19.926 54.6672 19.2499 53.0351 19.2499 51.3333V25.6667C19.2499 23.9649 19.926 22.3328 21.1293 21.1294C22.3327 19.926 23.9648 19.25 25.6666 19.25M57.7499 44.9167H64.1666V32.0833H57.7499V44.9167ZM57.7499 96.25H64.1666V83.4167H57.7499V96.25ZM32.0833 32.0833V44.9167H44.9166V32.0833H32.0833ZM32.0833 83.4167V96.25H44.9166V83.4167H32.0833Z" fill="#50B05A"/>
</svg>
