<svg width="142" height="142" viewBox="0 0 142 142" fill="none" xmlns="http://www.w3.org/2000/svg">
<path d="M124.25 65.0833C124.25 97.9208 101.53 128.628 71 136.083C40.47 128.628 17.75 97.9208 17.75 65.0833V29.5833L71 5.91663L124.25 29.5833V65.0833ZM71 124.25C93.1875 118.333 112.417 91.945 112.417 66.385V37.275L71 18.815L29.5833 37.275V66.385C29.5833 91.945 48.8125 118.333 71 124.25ZM87.5667 65.0833V56.2083C87.5667 47.925 79.2833 41.4166 71 41.4166C62.7167 41.4166 54.4333 47.925 54.4333 56.2083V65.0833C50.8833 65.0833 47.3333 68.6333 47.3333 72.1833V92.8916C47.3333 97.0333 50.8833 100.583 54.4333 100.583H86.975C91.1167 100.583 94.6667 97.0333 94.6667 93.4833V72.775C94.6667 68.6333 91.1167 65.0833 87.5667 65.0833ZM79.875 65.0833H62.125V56.2083C62.125 51.475 66.2667 48.5166 71 48.5166C75.7333 48.5166 79.875 51.475 79.875 56.2083V65.0833Z" fill="#50B05A"/>
</svg>
