<svg width="163" height="163" viewBox="0 0 163 163" fill="none" xmlns="http://www.w3.org/2000/svg">
<path d="M81.5002 108.667C76.0964 108.667 70.9139 106.52 67.0929 102.699C63.2718 98.8779 61.1252 93.6955 61.1252 88.2917C61.1252 80.685 65.2681 74.0292 71.3127 70.5654L137.26 32.3963L99.7018 97.4604C96.306 104.116 89.4464 108.667 81.5002 108.667ZM81.5002 20.375C93.7931 20.375 105.271 23.7708 115.255 29.34L100.992 37.5579C95.0835 35.2488 88.2918 33.9583 81.5002 33.9583C67.0901 33.9583 53.2702 39.6827 43.0807 49.8722C32.8912 60.0617 27.1668 73.8816 27.1668 88.2917C27.1668 103.301 33.2114 116.885 43.0593 126.665H43.1272C45.776 129.313 45.776 133.592 43.1272 136.241C40.4785 138.89 36.1318 138.89 33.4831 136.309C21.1902 124.016 13.5835 107.037 13.5835 88.2917C13.5835 70.279 20.739 53.0042 33.4758 40.2673C46.2127 27.5305 63.4875 20.375 81.5002 20.375M149.417 88.2917C149.417 107.037 141.81 124.016 129.517 136.309C126.868 138.89 122.59 138.89 119.941 136.241C117.292 133.592 117.292 129.313 119.941 126.665C129.789 116.817 135.833 103.301 135.833 88.2917C135.833 81.5 134.543 74.7083 132.166 68.5958L140.384 54.3333C146.021 64.5208 149.417 75.9308 149.417 88.2917Z" fill="#50B05A"/>
</svg>
